<?xml version="1.0" encoding="UTF-8" standalone="no"?>
<!-- Created with Inkscape (http://www.inkscape.org/) -->

<svg
   xmlns:dc="http://purl.org/dc/elements/1.1/"
   xmlns:cc="http://creativecommons.org/ns#"
   xmlns:rdf="http://www.w3.org/1999/02/22-rdf-syntax-ns#"
   xmlns:svg="http://www.w3.org/2000/svg"
   xmlns="http://www.w3.org/2000/svg"
   xmlns:xlink="http://www.w3.org/1999/xlink"
   xmlns:sodipodi="http://sodipodi.sourceforge.net/DTD/sodipodi-0.dtd"
   xmlns:inkscape="http://www.inkscape.org/namespaces/inkscape"
   width="680.5625"
   height="680.5625"
   id="svg2"
   sodipodi:version="0.32"
   inkscape:version="0.48.3.1 r9886"
   sodipodi:docname="manright.svg"
   version="1.1">
  <defs
     id="defs4">
    <linearGradient
       id="linearGradient2067">
      <stop
         style="stop-color:#ffff00;stop-opacity:1.0000000;"
         offset="0.0000000"
         id="stop2069" />
      <stop
         style="stop-color:#c89600;stop-opacity:0.0000000;"
         offset="1.0000000"
         id="stop2071" />
    </linearGradient>
    <linearGradient
       inkscape:collect="always"
       id="linearGradient2057">
      <stop
         style="stop-color:#000000;stop-opacity:1;"
         offset="0"
         id="stop2059" />
      <stop
         style="stop-color:#000000;stop-opacity:0;"
         offset="1"
         id="stop2061" />
    </linearGradient>
    <linearGradient
       id="linearGradient2043">
      <stop
         style="stop-color:#c89600;stop-opacity:1.0000000;"
         offset="0.0000000"
         id="stop2045" />
      <stop
         style="stop-color:#644b00;stop-opacity:1.0000000;"
         offset="1.0000000"
         id="stop2047" />
    </linearGradient>
    <radialGradient
       inkscape:collect="always"
       xlink:href="#linearGradient2043"
       id="radialGradient2049"
       cx="254.28572"
       cy="215.21931"
       fx="254.28572"
       fy="215.21931"
       r="340.28571"
       gradientUnits="userSpaceOnUse" />
    <radialGradient
       inkscape:collect="always"
       xlink:href="#linearGradient2043"
       id="radialGradient2053"
       gradientUnits="userSpaceOnUse"
       cx="254.28572"
       cy="215.21931"
       fx="254.28572"
       fy="215.21931"
       r="340.28571"
       gradientTransform="matrix(1.596575,0,0,1.639288,-151.7006,-137.5872)" />
    <radialGradient
       inkscape:collect="always"
       xlink:href="#linearGradient2057"
       id="radialGradient2063"
       cx="380"
       cy="389.50504"
       fx="380"
       fy="389.50504"
       r="334.28571"
       gradientUnits="userSpaceOnUse" />
    <radialGradient
       inkscape:collect="always"
       xlink:href="#linearGradient2067"
       id="radialGradient2073"
       cx="266.56567"
       cy="193.03102"
       fx="266.56567"
       fy="193.03102"
       r="334.28571"
       gradientUnits="userSpaceOnUse" />
  </defs>
  <sodipodi:namedview
     id="base"
     pagecolor="#ffffff"
     bordercolor="#666666"
     borderopacity="1.0"
     inkscape:pageopacity="0.0"
     inkscape:pageshadow="2"
     inkscape:zoom="0.35"
     inkscape:cx="335.28125"
     inkscape:cy="284.49785"
     inkscape:document-units="px"
     inkscape:current-layer="layer1"
     showgrid="true"
     inkscape:window-width="1016"
     inkscape:window-height="714"
     inkscape:window-x="348"
     inkscape:window-y="27"
     fit-margin-top="0"
     fit-margin-left="0"
     fit-margin-right="0"
     fit-margin-bottom="0"
     inkscape:window-maximized="0" />
  <metadata
     id="metadata7">
    <rdf:RDF>
      <cc:Work
         rdf:about="">
        <dc:format>image/svg+xml</dc:format>
        <dc:type
           rdf:resource="http://purl.org/dc/dcmitype/StillImage" />
      </cc:Work>
    </rdf:RDF>
  </metadata>
  <g
     inkscape:label="Layer 1"
     inkscape:groupmode="layer"
     id="layer1"
     transform="translate(-39.71875,-49.21875)">
    <path
       sodipodi:type="arc"
       style="fill:url(#radialGradient2049);fill-opacity:1;stroke:#000000;stroke-width:12;stroke-miterlimit:4;stroke-opacity:1;stroke-dasharray:none"
       id="path2041"
       sodipodi:cx="380"
       sodipodi:cy="389.50504"
       sodipodi:rx="334.28571"
       sodipodi:ry="334.28571"
       d="m 714.28571,389.50504 c 0,184.62089 -149.66481,334.2857 -334.28571,334.2857 -184.6209,0 -334.285706,-149.66481 -334.285706,-334.2857 C 45.714294,204.88414 195.3791,55.21933 380,55.21933 c 184.6209,0 334.28571,149.66481 334.28571,334.28571 z" />
    <path
       d="m 714.28571,389.50504 c 0,184.62089 -149.66481,334.2857 -334.28571,334.2857 -184.6209,0 -334.285706,-149.66481 -334.285706,-334.2857 C 45.714294,204.88414 195.3791,55.21933 380,55.21933 c 184.6209,0 334.28571,149.66481 334.28571,334.28571 z"
       sodipodi:ry="334.28571"
       sodipodi:rx="334.28571"
       sodipodi:cy="389.50504"
       sodipodi:cx="380"
       id="path2051"
       style="fill:url(#radialGradient2053);fill-opacity:1;stroke:none"
       sodipodi:type="arc" />
    <path
       sodipodi:type="arc"
       style="fill:url(#radialGradient2073);fill-opacity:1;stroke:#000000;stroke-width:8;stroke-miterlimit:4;stroke-opacity:1;stroke-dasharray:none"
       id="path2065"
       sodipodi:cx="380"
       sodipodi:cy="389.50504"
       sodipodi:rx="334.28571"
       sodipodi:ry="334.28571"
       d="m 714.28571,389.50504 c 0,184.62089 -149.66481,334.2857 -334.28571,334.2857 -184.6209,0 -334.285706,-149.66481 -334.285706,-334.2857 C 45.714294,204.88414 195.3791,55.21933 380,55.21933 c 184.6209,0 334.28571,149.66481 334.28571,334.28571 z" />
    <g
       id="g3518"
       transform="matrix(0,1,-1,0,769.505,9.504965)">
      <g
         transform="translate(728.8571,86)"
         id="g2052">
        <path
           sodipodi:type="arc"
           style="fill:#ffffff;fill-opacity:1;stroke:#000000;stroke-width:6;stroke-miterlimit:4;stroke-opacity:1;stroke-dasharray:none"
           id="path1319"
           sodipodi:cx="-481.42856"
           sodipodi:cy="75.219322"
           sodipodi:rx="78.571426"
           sodipodi:ry="97.14286"
           d="m -402.85713,75.219322 c 0,53.650518 -35.17763,97.142858 -78.57143,97.142858 -43.3938,0 -78.57142,-43.49234 -78.57142,-97.142858 0,-53.65052 35.17762,-97.14286 78.57142,-97.14286 43.3938,0 78.57143,43.49234 78.57143,97.14286 z" />
        <path
           sodipodi:type="arc"
           style="fill:#000000;fill-opacity:1;stroke:none"
           id="path2050"
           sodipodi:cx="-682.85712"
           sodipodi:cy="-76.209244"
           sodipodi:rx="31.428572"
           sodipodi:ry="31.428572"
           d="m -651.42854,-76.209244 c 0,17.357521 -14.07106,31.428572 -31.42858,31.428572 -17.35752,0 -31.42857,-14.071051 -31.42857,-31.428572 0,-17.357521 14.07105,-31.428576 31.42857,-31.428576 17.35752,0 31.42858,14.071055 31.42858,31.428576 z"
           transform="translate(202.8571,103)" />
      </g>
      <g
         id="g2056"
         transform="translate(997.4285,86)">
        <path
           d="m -402.85713,75.219322 c 0,53.650518 -35.17763,97.142858 -78.57143,97.142858 -43.3938,0 -78.57142,-43.49234 -78.57142,-97.142858 0,-53.65052 35.17762,-97.14286 78.57142,-97.14286 43.3938,0 78.57143,43.49234 78.57143,97.14286 z"
           sodipodi:ry="97.14286"
           sodipodi:rx="78.571426"
           sodipodi:cy="75.219322"
           sodipodi:cx="-481.42856"
           id="path2058"
           style="fill:#ffffff;fill-opacity:1;stroke:#000000;stroke-width:6;stroke-miterlimit:4;stroke-opacity:1;stroke-dasharray:none"
           sodipodi:type="arc" />
        <path
           transform="translate(202.8571,103)"
           d="m -651.42854,-76.209244 c 0,17.357521 -14.07106,31.428572 -31.42858,31.428572 -17.35752,0 -31.42857,-14.071051 -31.42857,-31.428572 0,-17.357521 14.07105,-31.428576 31.42857,-31.428576 17.35752,0 31.42858,14.071055 31.42858,31.428576 z"
           sodipodi:ry="31.428572"
           sodipodi:rx="31.428572"
           sodipodi:cy="-76.209244"
           sodipodi:cx="-682.85712"
           id="path2060"
           style="fill:#000000;fill-opacity:1;stroke:none"
           sodipodi:type="arc" />
      </g>
      <path
         sodipodi:type="arc"
         style="fill:none;stroke:none"
         id="path2790"
         sodipodi:cx="380"
         sodipodi:cy="389.50504"
         sodipodi:rx="334.28571"
         sodipodi:ry="334.28571"
         d="m 714.28571,389.50504 c 0,184.62089 -149.66481,334.2857 -334.28571,334.2857 -184.6209,0 -334.285706,-149.66481 -334.285706,-334.2857 C 45.714294,204.88414 195.3791,55.21933 380,55.21933 c 184.6209,0 334.28571,149.66481 334.28571,334.28571 z" />
    </g>
  </g>
</svg>
