<?xml version="1.0" encoding="UTF-8" standalone="no"?>
<!-- Created with Inkscape (http://www.inkscape.org/) -->

<svg
   xmlns:dc="http://purl.org/dc/elements/1.1/"
   xmlns:cc="http://creativecommons.org/ns#"
   xmlns:rdf="http://www.w3.org/1999/02/22-rdf-syntax-ns#"
   xmlns:svg="http://www.w3.org/2000/svg"
   xmlns="http://www.w3.org/2000/svg"
   xmlns:sodipodi="http://sodipodi.sourceforge.net/DTD/sodipodi-0.dtd"
   xmlns:inkscape="http://www.inkscape.org/namespaces/inkscape"
   width="118.21627"
   height="118.21603"
   id="svg2"
   sodipodi:version="0.32"
   inkscape:version="0.48.3.1 r9886"
   sodipodi:docname="explo11.svg"
   version="1.1">
  <defs
     id="defs4" />
  <sodipodi:namedview
     id="base"
     pagecolor="#ffffff"
     bordercolor="#666666"
     borderopacity="1.0"
     inkscape:pageopacity="0.0"
     inkscape:pageshadow="2"
     inkscape:zoom="0.98994949"
     inkscape:cx="56.780754"
     inkscape:cy="-44.858124"
     inkscape:document-units="px"
     inkscape:current-layer="layer1"
     showgrid="true"
     inkscape:window-width="1016"
     inkscape:window-height="739"
     inkscape:window-x="898"
     inkscape:window-y="27"
     fit-margin-top="0"
     fit-margin-left="0"
     fit-margin-right="0"
     fit-margin-bottom="0"
     inkscape:window-maximized="0">
    <inkscape:grid
       id="GridFromPre046Settings"
       type="xygrid"
       originx="-99.496075px"
       originy="-598.36217px"
       spacingx="8.0000000px"
       spacingy="8.0000000px"
       color="#3f3fff"
       empcolor="#3f3fff"
       opacity="0.15"
       empopacity="0.38"
       empspacing="4" />
  </sodipodi:namedview>
  <metadata
     id="metadata7">
    <rdf:RDF>
      <cc:Work
         rdf:about="">
        <dc:format>image/svg+xml</dc:format>
        <dc:type
           rdf:resource="http://purl.org/dc/dcmitype/StillImage" />
      </cc:Work>
    </rdf:RDF>
  </metadata>
  <g
     inkscape:label="Layer 1"
     inkscape:groupmode="layer"
     id="layer1"
     transform="translate(-99.496075,-335.78396)">
    <path
       sodipodi:type="arc"
       style="fill:none;stroke:none"
       id="path2763"
       sodipodi:cx="160.10918"
       sodipodi:cy="410.41025"
       sodipodi:rx="59.093922"
       sodipodi:ry="59.093922"
       d="m 213.739,385.59223 c 13.70661,29.61894 0.80712,64.74123 -28.81181,78.44784 -29.61893,13.70661 -64.74122,0.80712 -78.44783,-28.81181 -13.706616,-29.61893 -0.80713,-64.74122 28.8118,-78.44783 29.53976,-13.66997 64.572,-0.87869 78.35359,28.60915"
       sodipodi:start="5.8497667"
       sodipodi:end="12.12917"
       sodipodi:open="true"
       transform="matrix(1,0,0,-1,-1.504965,805.30235)" />
    <path
       style="fill:#ff9a2d;fill-opacity:1;stroke:none"
       d="m 156.5625,335.81797 c -7.65356,0.26168 -15.39816,2.02086 -22.78125,5.4375 -29.60366,13.69955 -42.512036,48.83383 -28.8125,78.4375 2.86932,6.20039 6.71442,11.60546 11.21875,16.25 -1.14393,-1.89357 -2.20656,-3.85118 -3.15625,-5.90625 -13.898869,-30.0763 -0.78438,-65.73798 29.25,-79.65625 7.49052,-3.47122 15.29757,-5.32788 23.0625,-5.59375 14.10693,-0.48297 27.90651,4.15479 38.96875,12.8125 -11.7374,-14.39901 -29.48077,-22.40587 -47.75,-21.78125 z"
       id="path2192"
       inkscape:connector-curvature="0" />
  </g>
</svg>
