<?xml version="1.0" encoding="UTF-8" standalone="no"?>
<!-- Created with Inkscape (http://www.inkscape.org/) -->

<svg
   xmlns:dc="http://purl.org/dc/elements/1.1/"
   xmlns:cc="http://creativecommons.org/ns#"
   xmlns:rdf="http://www.w3.org/1999/02/22-rdf-syntax-ns#"
   xmlns:svg="http://www.w3.org/2000/svg"
   xmlns="http://www.w3.org/2000/svg"
   xmlns:sodipodi="http://sodipodi.sourceforge.net/DTD/sodipodi-0.dtd"
   xmlns:inkscape="http://www.inkscape.org/namespaces/inkscape"
   width="118.21627"
   height="118.21603"
   id="svg2"
   sodipodi:version="0.32"
   inkscape:version="0.48.3.1 r9886"
   sodipodi:docname="explo05.svg"
   version="1.1">
  <defs
     id="defs4" />
  <sodipodi:namedview
     id="base"
     pagecolor="#ffffff"
     bordercolor="#666666"
     borderopacity="1.0"
     inkscape:pageopacity="0.0"
     inkscape:pageshadow="2"
     inkscape:zoom="0.98994949"
     inkscape:cx="55.280756"
     inkscape:cy="-26.389459"
     inkscape:document-units="px"
     inkscape:current-layer="layer1"
     showgrid="true"
     inkscape:window-width="1016"
     inkscape:window-height="739"
     inkscape:window-x="898"
     inkscape:window-y="27"
     fit-margin-top="0"
     fit-margin-left="0"
     fit-margin-right="0"
     fit-margin-bottom="0"
     inkscape:window-maximized="0">
    <inkscape:grid
       id="GridFromPre046Settings"
       type="xygrid"
       originx="-100.99607px"
       originy="-579.89351px"
       spacingx="8.0000000px"
       spacingy="8.0000000px"
       color="#3f3fff"
       empcolor="#3f3fff"
       opacity="0.15"
       empopacity="0.38"
       empspacing="4" />
  </sodipodi:namedview>
  <metadata
     id="metadata7">
    <rdf:RDF>
      <cc:Work
         rdf:about="">
        <dc:format>image/svg+xml</dc:format>
        <dc:type
           rdf:resource="http://purl.org/dc/dcmitype/StillImage" />
      </cc:Work>
    </rdf:RDF>
  </metadata>
  <g
     inkscape:label="Layer 1"
     inkscape:groupmode="layer"
     id="layer1"
     transform="translate(-100.99607,-354.25265)">
    <path
       sodipodi:type="arc"
       style="fill:none;stroke:none"
       id="path2763-0"
       sodipodi:cx="160.10918"
       sodipodi:cy="410.41025"
       sodipodi:rx="59.093922"
       sodipodi:ry="59.093922"
       d="m 213.739,385.59223 c 13.70661,29.61894 0.80712,64.74123 -28.81181,78.44784 -29.61893,13.70661 -64.74122,0.80712 -78.44783,-28.81181 -13.706616,-29.61893 -0.80713,-64.74122 28.8118,-78.44783 29.53976,-13.66997 64.572,-0.87869 78.35359,28.60915"
       sodipodi:start="5.8497667"
       sodipodi:end="12.12917"
       sodipodi:open="true"
       transform="translate(-0.00497,2.9502938)" />
    <path
       style="fill:#ffe169;fill-opacity:1;stroke:none"
       d="m 158.0625,354.375 c -7.65356,0.26167 -15.39816,2.02086 -22.78125,5.4375 -29.60366,13.69954 -42.512044,48.83383 -28.8125,78.4375 10.5539,22.80617 33.85517,35.63678 57.53125,34.09375 -11.20532,-3.47694 -21.05176,-11.62577 -26.34375,-23.59375 -9.76424,-22.08206 -0.53727,-48.28117 20.5625,-58.5 5.26224,-2.54855 10.73249,-3.89856 16.1875,-4.09375 16.36505,-0.58556 32.2598,8.91359 39.625,25.40625 l 0.0625,0.15625 c 2.12596,4.80792 3.19351,9.81828 3.59375,14.8125 2.80735,-12.29846 1.76725,-25.57872 -3.9375,-37.90625 l -0.0937,-0.21875 C 203.32264,366.29589 181.02318,353.58998 158.0625,354.375 z"
       id="path2763"
       inkscape:export-filename="/home/tony/Bombz/pngs/explo5.png"
       inkscape:export-xdpi="22.500000"
       inkscape:export-ydpi="22.500000"
       inkscape:connector-curvature="0" />
  </g>
</svg>
