<?xml version="1.0" encoding="UTF-8" standalone="no"?>
<!-- Created with Inkscape (http://www.inkscape.org/) -->

<svg
   xmlns:dc="http://purl.org/dc/elements/1.1/"
   xmlns:cc="http://creativecommons.org/ns#"
   xmlns:rdf="http://www.w3.org/1999/02/22-rdf-syntax-ns#"
   xmlns:svg="http://www.w3.org/2000/svg"
   xmlns="http://www.w3.org/2000/svg"
   xmlns:sodipodi="http://sodipodi.sourceforge.net/DTD/sodipodi-0.dtd"
   xmlns:inkscape="http://www.inkscape.org/namespaces/inkscape"
   width="118.22661"
   height="118.19453"
   id="svg2"
   sodipodi:version="0.32"
   inkscape:version="0.48.3.1 r9886"
   sodipodi:docname="explo02.svg"
   version="1.1">
  <defs
     id="defs4" />
  <sodipodi:namedview
     id="base"
     pagecolor="#ffffff"
     bordercolor="#666666"
     borderopacity="1.0"
     inkscape:pageopacity="0.0"
     inkscape:pageshadow="2"
     inkscape:zoom="0.98994949"
     inkscape:cx="55.280757"
     inkscape:cy="-26.322956"
     inkscape:document-units="px"
     inkscape:current-layer="layer1"
     showgrid="true"
     inkscape:window-width="1016"
     inkscape:window-height="739"
     inkscape:window-x="898"
     inkscape:window-y="27"
     fit-margin-top="0"
     fit-margin-left="0"
     fit-margin-right="0"
     fit-margin-bottom="0"
     inkscape:window-maximized="0">
    <inkscape:grid
       id="GridFromPre046Settings"
       type="xygrid"
       originx="-100.99607px"
       originy="-579.82701px"
       spacingx="8.0000000px"
       spacingy="8.0000000px"
       color="#3f3fff"
       empcolor="#3f3fff"
       opacity="0.15"
       empopacity="0.38"
       empspacing="4" />
  </sodipodi:namedview>
  <metadata
     id="metadata7">
    <rdf:RDF>
      <cc:Work
         rdf:about="">
        <dc:format>image/svg+xml</dc:format>
        <dc:type
           rdf:resource="http://purl.org/dc/dcmitype/StillImage" />
      </cc:Work>
    </rdf:RDF>
  </metadata>
  <g
     inkscape:label="Layer 1"
     inkscape:groupmode="layer"
     id="layer1"
     transform="translate(-100.99607,-354.34064)">
    <path
       style="fill:#fff887;fill-opacity:1;stroke:none"
       d="m 158.0625,354.375 c -7.65356,0.26167 -15.39816,2.02086 -22.78125,5.4375 -29.60366,13.69954 -42.512044,48.83383 -28.8125,78.4375 13.69954,29.60366 48.86509,42.51204 78.46875,28.8125 29.60366,-13.69954 42.51204,-48.83383 28.8125,-78.4375 l -0.0937,-0.21875 C 203.32264,366.29589 181.02318,353.58998 158.0625,354.375 z m 20.6875,49.46875 c 11.77471,-0.40258 23.20071,6.1301 28.5,17.46875 l 0.0625,0.0937 c 7.02541,15.18138 0.40012,33.22459 -14.78125,40.25 -15.18136,7.02541 -33.19334,0.40012 -40.21875,-14.78125 -7.02541,-15.18135 -0.40012,-33.19334 14.78125,-40.21875 3.7862,-1.75212 7.73135,-2.67831 11.65625,-2.8125 z"
       id="path2763"
       inkscape:connector-curvature="0" />
  </g>
</svg>
