<?xml version="1.0" encoding="UTF-8" standalone="no"?>
<!-- Created with Inkscape (http://www.inkscape.org/) -->

<svg
   xmlns:dc="http://purl.org/dc/elements/1.1/"
   xmlns:cc="http://creativecommons.org/ns#"
   xmlns:rdf="http://www.w3.org/1999/02/22-rdf-syntax-ns#"
   xmlns:svg="http://www.w3.org/2000/svg"
   xmlns="http://www.w3.org/2000/svg"
   xmlns:sodipodi="http://sodipodi.sourceforge.net/DTD/sodipodi-0.dtd"
   xmlns:inkscape="http://www.inkscape.org/namespaces/inkscape"
   width="118.20063"
   height="118.14156"
   id="svg2"
   sodipodi:version="0.32"
   inkscape:version="0.48.3.1 r9886"
   sodipodi:docname="explo03.svg"
   version="1.1">
  <defs
     id="defs4" />
  <sodipodi:namedview
     id="base"
     pagecolor="#ffffff"
     bordercolor="#666666"
     borderopacity="1.0"
     inkscape:pageopacity="0.0"
     inkscape:pageshadow="2"
     inkscape:zoom="0.98994949"
     inkscape:cx="55.280757"
     inkscape:cy="-26.375927"
     inkscape:document-units="px"
     inkscape:current-layer="layer1"
     showgrid="true"
     inkscape:window-width="1016"
     inkscape:window-height="739"
     inkscape:window-x="898"
     inkscape:window-y="27"
     fit-margin-top="0"
     fit-margin-left="0"
     fit-margin-right="0"
     fit-margin-bottom="0"
     inkscape:window-maximized="0">
    <inkscape:grid
       id="GridFromPre046Settings"
       type="xygrid"
       originx="-100.99607px"
       originy="-579.87998px"
       spacingx="8.0000000px"
       spacingy="8.0000000px"
       color="#3f3fff"
       empcolor="#3f3fff"
       opacity="0.15"
       empopacity="0.38"
       empspacing="4" />
  </sodipodi:namedview>
  <metadata
     id="metadata7">
    <rdf:RDF>
      <cc:Work
         rdf:about="">
        <dc:format>image/svg+xml</dc:format>
        <dc:type
           rdf:resource="http://purl.org/dc/dcmitype/StillImage" />
      </cc:Work>
    </rdf:RDF>
  </metadata>
  <g
     inkscape:label="Layer 1"
     inkscape:groupmode="layer"
     id="layer1"
     transform="translate(-100.99607,-354.34064)">
    <path
       style="fill:#fff27d;fill-opacity:1;stroke:none"
       d="m 158.0625,354.375 c -7.65356,0.26167 -15.39816,2.02086 -22.78125,5.4375 -29.60366,13.69954 -42.512044,48.83383 -28.8125,78.4375 13.38309,28.91983 47.24949,41.84365 76.40625,29.65625 -15.05253,2.19919 -30.38031,-5.46152 -37.09375,-19.96875 -8.17727,-17.67042 -0.4517,-38.63523 17.21875,-46.8125 4.40699,-2.0394 8.99409,-3.09381 13.5625,-3.25 13.70524,-0.46857 26.9881,7.1148 33.15625,20.3125 l 0.0937,0.125 c 3.58045,7.73707 3.95154,16.06058 1.9375,23.71875 8.79942,-15.92062 10.22062,-35.64212 2,-53.40625 l -0.0937,-0.21875 C 203.32264,366.29589 181.02318,353.58998 158.0625,354.375 z"
       id="path2763"
       inkscape:connector-curvature="0" />
  </g>
</svg>
