<?xml version="1.0" encoding="UTF-8" standalone="no"?>
<!-- Created with Inkscape (http://www.inkscape.org/) -->

<svg
   xmlns:dc="http://purl.org/dc/elements/1.1/"
   xmlns:cc="http://creativecommons.org/ns#"
   xmlns:rdf="http://www.w3.org/1999/02/22-rdf-syntax-ns#"
   xmlns:svg="http://www.w3.org/2000/svg"
   xmlns="http://www.w3.org/2000/svg"
   xmlns:xlink="http://www.w3.org/1999/xlink"
   xmlns:sodipodi="http://sodipodi.sourceforge.net/DTD/sodipodi-0.dtd"
   xmlns:inkscape="http://www.inkscape.org/namespaces/inkscape"
   width="256"
   height="256"
   id="svg2"
   sodipodi:version="0.32"
   inkscape:version="0.48.3.1 r9886"
   sodipodi:docname="picket.svg"
   version="1.1">
  <defs
     id="defs4">
    <pattern
       inkscape:collect="always"
       xlink:href="#pattern2287"
       id="pattern3045"
       patternTransform="translate(257.70748,214.42259)" />
    <pattern
       inkscape:collect="always"
       xlink:href="#pattern2279"
       id="pattern3043"
       patternTransform="translate(257.70748,214.42259)" />
    <pattern
       inkscape:collect="always"
       xlink:href="#pattern2279"
       id="pattern2285"
       patternTransform="translate(258.3750,-457.6562)" />
    <pattern
       inkscape:collect="always"
       xlink:href="#pattern2135"
       id="pattern2203"
       patternTransform="matrix(-1.000000,0.000000,0.000000,1.000000,801.1994,74.65317)" />
    <pattern
       inkscape:collect="always"
       xlink:href="#pattern2122"
       id="pattern2201"
       patternTransform="translate(90.33176,74.65317)" />
    <pattern
       inkscape:collect="always"
       xlink:href="#pattern2143"
       id="pattern2199"
       patternTransform="matrix(-1.000000,0.000000,0.000000,-1.000000,801.1993,244.2887)" />
    <pattern
       inkscape:collect="always"
       xlink:href="#pattern2139"
       id="pattern2197"
       patternTransform="matrix(1.000000,0.000000,0.000000,-1.000000,90.33176,245.6765)" />
    <pattern
       inkscape:collect="always"
       xlink:href="#pattern2135"
       id="pattern2195"
       patternTransform="matrix(-1.000000,0.000000,0.000000,1.000000,801.1994,74.65317)" />
    <pattern
       inkscape:collect="always"
       xlink:href="#pattern2122"
       id="pattern2193"
       patternTransform="translate(90.33176,74.65317)" />
    <pattern
       inkscape:collect="always"
       xlink:href="#pattern2093"
       id="pattern2191"
       patternTransform="translate(90.33176,154.7216)" />
    <pattern
       inkscape:collect="always"
       xlink:href="#pattern2135"
       id="pattern2175"
       patternTransform="matrix(-1.000000,0.000000,0.000000,1.000000,801.4467,233.4443)" />
    <pattern
       inkscape:collect="always"
       xlink:href="#pattern2122"
       id="pattern2173"
       patternTransform="translate(90.57915,233.4443)" />
    <pattern
       inkscape:collect="always"
       xlink:href="#pattern2143"
       id="pattern2171"
       patternTransform="matrix(-1.000000,0.000000,0.000000,-1.000000,801.4466,403.0798)" />
    <pattern
       inkscape:collect="always"
       xlink:href="#pattern2139"
       id="pattern2169"
       patternTransform="matrix(1.000000,0.000000,0.000000,-1.000000,90.57915,404.4676)" />
    <pattern
       inkscape:collect="always"
       xlink:href="#pattern2135"
       id="pattern2167"
       patternTransform="matrix(-1.000000,0.000000,0.000000,1.000000,801.4467,233.4443)" />
    <pattern
       inkscape:collect="always"
       xlink:href="#pattern2122"
       id="pattern2165"
       patternTransform="translate(90.57915,233.4443)" />
    <pattern
       inkscape:collect="always"
       xlink:href="#pattern2093"
       id="pattern2163"
       patternTransform="translate(90.57915,313.5127)" />
    <pattern
       inkscape:collect="always"
       xlink:href="#pattern2139"
       id="pattern2143"
       patternTransform="matrix(-1.000000,0.000000,0.000000,-1.000000,801.1993,561.8709)" />
    <pattern
       inkscape:collect="always"
       xlink:href="#pattern2093"
       id="pattern2139"
       patternTransform="matrix(1.000000,0.000000,0.000000,-1.000000,90.33176,563.2587)" />
    <pattern
       inkscape:collect="always"
       xlink:href="#pattern2122"
       id="pattern2135"
       patternTransform="matrix(-1.000000,0.000000,0.000000,1.000000,801.1994,392.2354)" />
    <pattern
       inkscape:collect="always"
       xlink:href="#pattern2093"
       id="pattern2122"
       patternTransform="translate(90.33176,392.2354)" />
    <pattern
       patternUnits="userSpaceOnUse"
       width="364.00753"
       height="92.103904"
       patternTransform="translate(90.33176,472.3038)"
       id="pattern2093">
      <g
         id="g2095"
         transform="translate(-90.33176,-472.3038)">
        <rect
           y="475.93362"
           x="96.428574"
           height="82.857140"
           width="352.42856"
           id="rect2097"
           style="fill:#9e720a;fill-opacity:1.0000000;stroke:none;stroke-width:2.0000000;stroke-miterlimit:4.0000000;stroke-dasharray:none;stroke-opacity:1.0000000" />
        <path
           sodipodi:nodetypes="csssssssssssssssssssssc"
           id="path2099"
           d="M 95.331762,481.43869 C 102.06907,482.66464 111.68795,481.64790 118.57143,481.64790 C 122.90880,481.64790 129.15332,484.82908 133.57143,485.93361 C 139.31852,487.37038 143.97886,490.21932 150.00000,490.21932 C 156.54233,490.21932 163.30130,490.93361 170.00000,490.93361 C 175.44952,490.93361 181.14945,487.70372 186.42857,486.64790 C 192.03700,485.52621 196.94096,483.79075 202.85714,483.79075 C 208.24054,483.79075 214.77065,481.26519 220.00000,480.21932 C 226.56207,478.90691 233.92535,479.50504 240.71429,479.50504 C 246.41256,479.50504 252.96903,481.24170 258.57143,482.36218 C 263.03994,483.25588 268.78834,486.75635 272.85714,488.79075 C 277.95959,491.34198 285.97390,490.93361 291.42857,490.93361 C 298.02527,490.93361 303.42932,491.86200 310.00000,490.21932 C 316.27874,488.64964 321.35591,485.29198 325.71429,480.93361 C 329.73105,476.91685 338.20875,477.36218 343.57143,477.36218 C 350.26582,477.36218 357.11793,477.00088 363.57143,478.07647 C 364.76896,478.27606 365.95238,478.55266 367.14286,478.79075 C 373.04025,479.97023 378.96467,479.92772 385.00000,480.93361 C 389.69613,481.71630 393.99912,483.36196 398.57143,484.50504 C 403.55889,485.75190 407.35789,487.36218 412.85714,487.36218 C 416.51874,487.36218 420.92712,483.91612 424.28571,483.07647 C 428.25746,482.08353 432.26275,481.97507 436.42857,480.93361 C 440.19795,479.99127 443.35624,483.86261 448.80357,483.70146"
           style="fill:none;fill-opacity:0.75000000;fill-rule:evenodd;stroke:#785300;stroke-width:10.000000;stroke-linecap:butt;stroke-linejoin:miter;stroke-opacity:1.0000000;stroke-miterlimit:4.0000000;stroke-dasharray:none" />
        <path
           sodipodi:nodetypes="cssssssssssssssssssssssssssssssssssc"
           id="path2101"
           d="M 95.331762,495.72440 C 96.813665,495.35393 106.73409,496.54571 110.00000,497.36218 C 114.01017,498.36472 118.63093,498.07647 122.85714,498.07647 C 126.95092,498.07647 131.24812,499.50504 135.71429,499.50504 C 141.12122,499.50504 146.10595,501.64790 151.42857,501.64790 C 156.61493,501.64790 161.86361,503.07647 167.14286,503.07647 C 172.15901,503.07647 177.56434,502.64612 182.14286,503.79075 C 186.34450,504.84117 190.78515,503.23732 194.28571,502.36218 C 199.27728,501.11429 203.97038,498.23414 208.57143,495.93361 C 212.48418,493.97723 216.32214,493.24061 220.71429,492.36218 C 225.97225,491.31059 231.45914,493.07647 236.42857,493.07647 C 240.84942,493.07647 245.33079,493.51631 249.28571,494.50504 C 252.95982,495.42356 257.04866,495.73149 260.71429,496.64790 C 264.60265,497.61999 268.03613,498.52310 271.42857,500.21932 C 274.59005,501.80007 279.37162,501.49080 282.85714,502.36218 C 286.58286,503.29361 289.61627,503.79075 293.57143,503.79075 C 297.15723,503.79075 302.13698,504.50386 305.71429,505.21932 C 309.18045,505.91256 313.58781,505.21932 317.14286,505.21932 C 320.60120,505.21932 325.02318,503.06488 327.85714,501.64790 C 331.99699,499.57797 333.10685,496.40690 337.85714,495.21932 C 341.58929,494.28629 344.91237,493.27695 348.57143,492.36218 C 351.99033,491.50746 355.88675,491.78335 359.28571,490.93361 C 362.84183,490.04458 367.73169,490.93361 371.42857,490.93361 C 375.77534,490.93361 379.72817,492.11565 383.57143,493.07647 C 388.32014,494.26365 392.15950,495.22765 396.42857,497.36218 C 400.01822,499.15701 404.97448,503.05094 407.85714,505.93361 C 411.62182,509.69829 408.90461,514.07658 406.42857,515.93361 C 403.57442,518.07423 398.43292,517.38988 395.00000,518.07647 C 390.81235,518.91400 386.06730,517.80964 382.14286,518.79075 C 377.56553,519.93509 371.20288,518.79075 366.42857,518.79075 C 362.61905,518.79075 358.80952,518.79075 355.00000,518.79075 C 351.20026,518.79075 347.48931,517.53541 344.28571,515.93361 C 338.53677,513.05914 347.50877,508.25066 349.28571,507.36218 C 352.03887,505.98560 358.25885,505.93361 361.42857,505.93361 C 364.97624,505.93361 368.32074,505.21932 372.14286,505.21932 C 375.00000,505.21932 377.85714,505.21932 380.71429,505.21932"
           style="fill:none;fill-opacity:0.75000000;fill-rule:evenodd;stroke:#5b4000;stroke-width:10.000000;stroke-linecap:butt;stroke-linejoin:miter;stroke-opacity:1.0000000;stroke-miterlimit:4.0000000;stroke-dasharray:none" />
        <path
           sodipodi:nodetypes="csssssssssssssssssssssssssssc"
           id="path2103"
           d="M 96.000000,507.45147 C 98.204645,507.36732 107.38240,509.92207 111.42857,510.93361 C 115.58905,511.97373 119.78157,512.36218 124.28571,512.36218 C 128.99342,512.36218 133.58653,511.64790 138.57143,511.64790 C 142.10009,511.64790 145.53075,513.07647 149.28571,513.07647 C 153.62087,513.07647 158.05347,515.21932 162.85714,515.21932 C 168.22869,515.21932 174.05176,516.64790 180.00000,516.64790 C 185.27354,516.64790 190.29729,517.36218 195.71429,517.36218 C 200.14451,517.36218 204.19037,517.36218 208.57143,517.36218 C 213.25017,517.36218 219.20565,513.40443 224.00000,512.36218 C 228.03211,511.48564 232.35239,510.93361 236.42857,510.93361 C 240.98151,510.93361 245.57322,509.50504 250.00000,509.50504 C 255.91812,509.50504 262.22714,513.81182 267.85714,515.21932 C 272.99321,516.50334 278.09047,517.36218 283.57143,517.36218 C 288.31830,517.36218 294.18960,517.91439 298.57143,518.79075 C 303.12392,519.70125 308.24401,519.50504 312.85714,519.50504 C 317.03456,519.50504 322.53478,520.67445 326.42857,521.64790 C 330.72499,522.72200 334.88543,523.59691 339.28571,524.36218 C 343.04432,525.01585 348.12049,527.49386 350.71429,528.79075 C 353.73639,530.30181 358.18720,530.12327 361.42857,530.93361 C 364.81309,531.77974 368.55110,531.64790 372.14286,531.64790 C 375.87196,531.64790 380.10579,532.21006 383.57143,533.07647 C 387.40763,534.03552 391.99601,532.43561 395.00000,530.93361 C 398.38864,529.23929 402.19422,528.95649 405.71429,528.07647 C 409.97470,527.01136 412.83395,526.33922 416.42857,524.36218 C 420.29343,522.23651 423.43879,520.39618 425.71429,517.36218 C 429.23613,512.66639 421.73503,505.64970 427.52538,502.10964 C 434.52714,497.82896 435.88473,503.34839 440.71429,500.93361 C 442.99793,499.79179 446.61782,498.81041 449.10714,498.88004"
           style="fill:none;fill-opacity:0.75000000;fill-rule:evenodd;stroke:#724900;stroke-width:10.000000;stroke-linecap:butt;stroke-linejoin:miter;stroke-opacity:1.0000000;stroke-miterlimit:4.0000000;stroke-dasharray:none" />
        <path
           sodipodi:nodetypes="cssssssssssssssssssssssssssssssssssssssssssc"
           id="path2105"
           d="M 96.469568,521.52702 C 103.65823,521.61078 103.34886,521.09015 106.06602,522.03209 C 108.66126,522.93178 111.22527,526.07271 114.14724,526.07271 C 116.80175,526.07271 120.19566,526.57528 122.73353,527.08286 C 125.84335,527.70482 128.51739,528.09301 131.82491,528.09301 C 134.97925,528.09301 137.66860,528.59809 140.91628,528.59809 C 144.28527,528.59809 148.01422,529.11660 151.01781,530.61839 C 153.55104,531.88501 158.39018,531.95641 161.11933,532.63870 C 163.94246,533.34448 166.93725,533.46183 169.70563,534.15393 C 173.27493,535.04625 177.31924,534.79464 180.81731,535.66916 C 184.36981,536.55728 188.01736,535.99800 191.42391,536.67931 C 194.16904,537.22833 197.02356,537.18438 200.01020,537.18438 C 202.73762,537.18438 206.05831,537.68946 209.10158,537.68946 C 212.31090,537.68946 215.89128,536.06238 218.69803,534.65900 C 221.79364,533.11120 225.23774,531.64168 228.29448,530.11332 C 230.88981,528.81565 234.05861,527.37964 235.87062,525.56763 C 237.38617,524.05208 240.70467,522.82598 242.43661,521.52702 C 245.04862,519.56801 246.71590,518.49656 250.01276,518.49656 C 253.34228,518.49656 255.94706,520.99108 258.59905,522.53717 C 261.37876,524.15772 263.76669,526.18958 266.17520,528.59809 C 268.42374,530.84663 271.12763,532.05987 273.24626,533.64885 C 275.25369,535.15442 277.34940,535.93733 280.31733,536.67931 C 282.74767,537.28689 285.34204,537.18438 288.00000,537.18438 C 290.97510,537.18438 293.80308,537.68946 296.98485,537.68946 C 299.84695,537.68946 302.70905,537.68946 305.57115,537.68946 C 308.43405,537.68946 310.94248,536.85170 313.65237,536.17423 C 316.19681,535.53812 319.62514,535.16408 322.23866,535.16408 C 325.10076,535.16408 327.96286,535.16408 330.82496,535.16408 C 333.87924,535.16408 336.64246,535.16408 339.91633,535.16408 C 342.75266,535.16408 346.68341,535.97197 349.51278,536.67931 C 349.83944,536.76097 350.18622,536.67931 350.52293,536.67931 C 353.66115,536.67931 356.66770,538.11029 359.61431,538.69961 C 362.62977,539.30271 365.11183,541.10259 368.00000,541.73007 C 371.59549,542.51122 375.26508,542.86484 378.80720,543.75038 C 381.62195,544.45406 384.61127,544.06497 387.39350,544.76053 C 390.18179,545.45760 393.21679,545.07993 395.97980,545.77068 C 399.12090,546.55596 403.32720,545.77068 406.58640,545.77068 C 409.76815,545.77068 412.93778,545.42078 416.00000,544.76053 C 419.53771,543.99776 421.50852,543.86546 424.76915,542.23515 C 427.71188,540.76378 429.87567,539.24154 432.00000,536.67931 C 433.54603,534.81457 435.08982,531.84142 436.38590,530.11332 C 438.26252,527.61116 439.26225,525.07314 439.92143,522.03210 C 440.51974,519.27191 442.93099,515.99208 444.97220,513.95088 C 445.80118,513.12190 447.54833,512.34958 449.33929,512.34636"
           style="fill:none;fill-opacity:0.75000000;fill-rule:evenodd;stroke:#664300;stroke-width:10.000000;stroke-linecap:butt;stroke-linejoin:miter;stroke-opacity:1.0000000;stroke-miterlimit:4.0000000;stroke-dasharray:none" />
        <path
           sodipodi:nodetypes="csssssssssssssssssssssssssssssssssc"
           id="path2107"
           d="M 96.469568,536.67931 C 100.22832,537.05049 102.81263,533.71939 106.57109,534.65900 C 109.53780,535.40068 113.42620,537.55988 116.16754,539.20469 C 118.08385,540.35448 123.60397,540.36218 125.76399,540.36218 C 129.32433,540.36218 131.49561,541.05812 134.85536,541.73007 C 135.18554,541.79611 135.52880,541.73007 135.86552,541.73007 C 139.02000,541.73007 142.10368,543.24530 145.46197,543.24530 C 148.62202,543.24530 152.03881,544.00563 155.05842,544.76053 C 158.11882,545.52563 161.36553,545.77068 164.65486,545.77068 C 168.04889,545.77068 172.04510,546.48182 175.26147,547.28591 C 178.02825,547.97761 181.06751,547.60100 183.84776,548.29606 C 186.36763,548.92603 189.37728,549.30621 192.00000,549.30621 C 194.67734,549.30621 198.01285,550.70091 200.51528,551.32652 C 203.31376,552.02614 205.50883,552.04220 208.00000,553.34682 C 209.68151,554.22743 214.16036,554.35698 216.17264,554.35698 C 219.72555,554.35698 221.81226,554.06255 225.26402,552.33667 C 228.44133,550.74802 230.83486,547.77599 233.34524,545.26560 C 235.75159,542.85925 238.03682,540.42813 239.40615,537.68946 C 240.89933,534.70310 244.21797,533.38273 246.47722,531.12347 C 249.84766,527.75303 250.92619,527.89421 254.55844,530.61839 C 257.10141,532.52562 259.29736,536.56070 260.61936,539.20469 C 262.25511,542.47619 264.29152,544.89716 266.68027,547.28591 C 268.77213,549.37777 271.81929,550.27592 274.25642,550.82144 C 277.07650,551.45269 279.28760,551.83160 282.33764,551.83160 C 285.48870,551.83160 288.17698,551.83160 291.42901,551.83160 C 294.47184,551.83160 296.92780,551.32652 300.01531,551.32652 C 303.19130,551.32652 305.81711,550.82144 309.10668,550.82144 C 312.27585,550.82144 315.76602,550.31637 319.20820,550.31637 C 322.48437,550.31637 326.70074,549.57965 329.81481,548.80114 C 332.72817,548.07280 336.38442,548.29606 339.41126,548.29606 C 342.22302,548.29606 345.49310,547.79099 348.50263,547.79099 C 351.46684,547.79099 355.54927,549.70539 358.60415,550.31637 C 361.58016,550.91157 364.10734,552.22513 367.19045,552.84175 C 369.47950,553.29956 371.92076,554.77023 374.94516,554.26507 C 384.00000,552.75265 386.53318,556.36218 386.38335,559.40774"
           style="fill:none;fill-opacity:0.75000000;fill-rule:evenodd;stroke:#5c3600;stroke-width:10.000000;stroke-linecap:butt;stroke-linejoin:miter;stroke-opacity:1.0000000;stroke-miterlimit:4.0000000;stroke-dasharray:none" />
        <path
           sodipodi:nodetypes="csssssssssssc"
           id="path2109"
           d="M 96.607143,549.68361 C 98.160327,549.50491 99.597303,549.86218 100.00000,549.86218 C 100.80127,549.86218 101.77171,550.04075 102.67857,550.04075 C 103.66504,550.04075 105.04710,550.19303 106.07143,550.39790 C 107.42494,550.66860 108.94871,550.75504 110.35714,550.75504 C 112.21503,550.75504 114.15494,550.93361 116.07143,550.93361 C 117.55752,550.93361 119.09395,550.82383 120.53571,551.11218 C 122.06803,551.41864 123.81121,551.46932 125.35714,551.46932 C 127.25008,551.46932 129.42665,551.72777 131.25000,552.18361 C 132.81728,552.57543 134.48285,552.75875 136.07143,553.07647 C 137.29092,553.32037 138.63433,553.67255 139.82143,553.96932 C 140.80794,554.21595 143.66869,553.47209 144.64286,553.43361 C 150.19423,553.21431 152.02381,556.36218 151.60714,558.96932"
           style="fill:none;fill-opacity:0.75000000;fill-rule:evenodd;stroke:#765000;stroke-width:10.000000;stroke-linecap:butt;stroke-linejoin:miter;stroke-opacity:1.0000000;stroke-miterlimit:4.0000000;stroke-dasharray:none" />
        <path
           sodipodi:nodetypes="cssc"
           id="path2111"
           d="M 448.92615,540.36218 C 444.70508,539.95679 441.90063,544.35260 439.89080,545.85997 C 437.65561,547.53636 436.13291,549.93221 433.35544,550.31637 C 426.23956,551.30060 420.40322,555.38750 420.58060,558.87203"
           style="fill:none;fill-opacity:0.75000000;fill-rule:evenodd;stroke:#6c4700;stroke-width:10.000000;stroke-linecap:butt;stroke-linejoin:miter;stroke-opacity:1.0000000;stroke-miterlimit:4.0000000;stroke-dasharray:none" />
        <path
           sodipodi:nodetypes="cssssc"
           id="path2113"
           d="M 240.00000,558.90266 C 239.04444,552.54712 244.80014,551.27142 245.34080,550.19010 C 245.74809,549.37552 250.53112,544.50065 250.39156,543.75038 C 250.11363,542.25622 248.66243,549.15745 250.13902,549.43248 C 251.45998,549.67853 251.22426,552.57658 252.15933,552.71548 C 254.43292,553.05319 256.00000,556.26580 256.00000,558.90267"
           style="fill:none;fill-opacity:0.75000000;fill-rule:evenodd;stroke:#694200;stroke-width:10.000000;stroke-linecap:butt;stroke-linejoin:miter;stroke-opacity:1.0000000;stroke-miterlimit:4.0000000;stroke-dasharray:none" />
      </g>
    </pattern>
    <pattern
       patternUnits="userSpaceOnUse"
       width="829.25567"
       height="828.27433"
       patternTransform="translate(31.17394,-95.75922)"
       id="pattern2228">
      <g
         id="g2230"
         transform="matrix(0.707107,0.707107,-0.707107,0.707107,324.9599,-126.1121)">
        <path
           id="path2232"
           d="M 98.250000,477.75000 L 98.250000,557.81250 L 446.09375,557.81250 L 446.09375,477.75000 L 98.250000,477.75000 z "
           style="fill:url(#pattern2093);stroke:none" />
        <path
           style="fill:url(#pattern2122);stroke:none"
           d="M 98.250000,397.68159 L 98.250000,477.74409 L 446.09375,477.74409 L 446.09375,397.68159 L 98.250000,397.68159 z "
           id="path2234" />
        <path
           id="path2236"
           d="M 793.28111,397.68159 L 793.28111,477.74409 L 445.43736,477.74409 L 445.43736,397.68159 L 793.28111,397.68159 z "
           style="fill:url(#pattern2135);stroke:none" />
        <path
           style="fill:url(#pattern2139);stroke:none"
           d="M 98.250000,557.81250 L 98.250000,477.75000 L 446.09375,477.75000 L 446.09375,557.81250 L 98.250000,557.81250 z "
           id="path2238" />
        <path
           id="path2240"
           d="M 793.28110,556.42468 L 793.28110,476.36218 L 445.43735,476.36218 L 445.43735,556.42468 L 793.28110,556.42468 z "
           style="fill:url(#pattern2143);stroke:none" />
        <path
           id="path2242"
           d="M 98.250000,397.68159 L 98.250000,477.74409 L 446.09375,477.74409 L 446.09375,397.68159 L 98.250000,397.68159 z "
           style="fill:url(#pattern2122);stroke:none" />
        <path
           style="fill:url(#pattern2135);stroke:none"
           d="M 793.28111,397.68159 L 793.28111,477.74409 L 445.43736,477.74409 L 445.43736,397.68159 L 793.28111,397.68159 z "
           id="path2244" />
        <path
           style="fill:url(#pattern2163);stroke:none"
           d="M 98.497346,318.95888 L 98.497346,399.02138 L 446.34110,399.02138 L 446.34110,318.95888 L 98.497346,318.95888 z "
           id="path2246" />
        <path
           id="path2248"
           d="M 98.497346,238.89047 L 98.497346,318.95297 L 446.34110,318.95297 L 446.34110,238.89047 L 98.497346,238.89047 z "
           style="fill:url(#pattern2165);stroke:none" />
        <path
           style="fill:url(#pattern2167);stroke:none"
           d="M 793.52846,238.89047 L 793.52846,318.95297 L 445.68471,318.95297 L 445.68471,238.89047 L 793.52846,238.89047 z "
           id="path2250" />
        <path
           id="path2252"
           d="M 98.497346,399.02138 L 98.497346,318.95888 L 446.34110,318.95888 L 446.34110,399.02138 L 98.497346,399.02138 z "
           style="fill:url(#pattern2169);stroke:none" />
        <path
           style="fill:url(#pattern2171);stroke:none"
           d="M 793.52845,397.63356 L 793.52845,317.57106 L 445.68470,317.57106 L 445.68470,397.63356 L 793.52845,397.63356 z "
           id="path2254" />
        <path
           style="fill:url(#pattern2173);stroke:none"
           d="M 98.497346,238.89047 L 98.497346,318.95297 L 446.34110,318.95297 L 446.34110,238.89047 L 98.497346,238.89047 z "
           id="path2256" />
        <path
           id="path2258"
           d="M 793.52846,238.89047 L 793.52846,318.95297 L 445.68471,318.95297 L 445.68471,238.89047 L 793.52846,238.89047 z "
           style="fill:url(#pattern2175);stroke:none" />
        <path
           style="fill:url(#pattern2191);stroke:none"
           d="M 98.250000,160.16777 L 98.250000,240.23027 L 446.09375,240.23027 L 446.09375,160.16777 L 98.250000,160.16777 z "
           id="path2260" />
        <path
           id="path2262"
           d="M 98.250000,80.099356 L 98.250000,160.16186 L 446.09375,160.16186 L 446.09375,80.099356 L 98.250000,80.099356 z "
           style="fill:url(#pattern2193);stroke:none" />
        <path
           style="fill:url(#pattern2195);stroke:none"
           d="M 793.28111,80.099356 L 793.28111,160.16186 L 445.43736,160.16186 L 445.43736,80.099356 L 793.28111,80.099356 z "
           id="path2264" />
        <path
           id="path2266"
           d="M 98.250000,240.23027 L 98.250000,160.16777 L 446.09375,160.16777 L 446.09375,240.23027 L 98.250000,240.23027 z "
           style="fill:url(#pattern2197);stroke:none" />
        <path
           style="fill:url(#pattern2199);stroke:none"
           d="M 793.28110,238.84245 L 793.28110,158.77995 L 445.43735,158.77995 L 445.43735,238.84245 L 793.28110,238.84245 z "
           id="path2268" />
        <path
           style="fill:url(#pattern2201);stroke:none"
           d="M 98.250000,80.099356 L 98.250000,160.16186 L 446.09375,160.16186 L 446.09375,80.099356 L 98.250000,80.099356 z "
           id="path2270" />
        <path
           id="path2272"
           d="M 793.28111,80.099356 L 793.28111,160.16186 L 445.43736,160.16186 L 445.43736,80.099356 L 793.28111,80.099356 z "
           style="fill:url(#pattern2203);stroke:none" />
      </g>
    </pattern>
    <pattern
       patternUnits="userSpaceOnUse"
       width="327.00000"
       height="324.40625"
       patternTransform="translate(258.3750,133.2500)"
       id="pattern2279">
      <path
         style="stroke:none;fill:url(#pattern2228)"
         d="M 258.37500 133.25000 L 258.37500 457.65625 L 585.37500 457.65625 L 585.37500 133.25000 L 258.37500 133.25000 z "
         id="path2281"
         transform="translate(-258.3750,-133.2500)" />
    </pattern>
    <pattern
       patternUnits="userSpaceOnUse"
       width="327.00000"
       height="324.40625"
       patternTransform="translate(258.3750,133.2500)"
       id="pattern2287">
      <rect
         style="fill:url(#pattern2285);stroke:none"
         width="327.00000"
         height="324.40625"
         x="258.37500"
         y="-457.65625"
         id="rect2289"
         transform="matrix(1.000000,0.000000,0.000000,-1.000000,-258.3750,-133.2500)" />
    </pattern>
  </defs>
  <sodipodi:namedview
     id="base"
     pagecolor="#ffffff"
     bordercolor="#666666"
     borderopacity="1.0"
     inkscape:pageopacity="0.0"
     inkscape:pageshadow="2"
     inkscape:zoom="1.4862292"
     inkscape:cx="228.12108"
     inkscape:cy="30.923099"
     inkscape:document-units="px"
     inkscape:current-layer="layer1"
     showgrid="true"
     inkscape:grid-bbox="true"
     inkscape:grid-points="true"
     inkscape:window-width="1920"
     inkscape:window-height="1145"
     inkscape:window-x="0"
     inkscape:window-y="27"
     fit-margin-top="0"
     fit-margin-left="0"
     fit-margin-right="0"
     fit-margin-bottom="0"
     inkscape:window-maximized="1">
    <inkscape:grid
       id="GridFromPre046Settings"
       type="xygrid"
       originx="-4.6859329px"
       originy="-272.55011px"
       spacingx="16.000000px"
       spacingy="16.000000px"
       color="#3f3fff"
       empcolor="#3f3fff"
       opacity="0.15"
       empopacity="0.38"
       empspacing="4"
       visible="true"
       enabled="true"
       snapvisiblegridlinesonly="true" />
  </sodipodi:namedview>
  <metadata
     id="metadata7">
    <rdf:RDF>
      <cc:Work
         rdf:about="">
        <dc:format>image/svg+xml</dc:format>
        <dc:type
           rdf:resource="http://purl.org/dc/dcmitype/StillImage" />
      </cc:Work>
    </rdf:RDF>
  </metadata>
  <g
     inkscape:label="Layer 1"
     inkscape:groupmode="layer"
     id="layer1"
     transform="translate(-4.6859329,-523.81208)">
    <g
       id="g2297"
       transform="translate(2.66752,-81.172587)">
      <path
         sodipodi:nodetypes="cssssssssssssssssssssssssssssssssssssssc"
         id="path1310"
         d="m 11.074034,650.42524 c -1.5272402,9.81238 6.93886,16.27077 11.11168,22.22335 3.5561,5.07283 11.57344,11.57345 16.16244,16.16244 6.99778,6.99779 13.44416,14.37627 21.2132,20.20306 9.99563,7.49671 16.90591,19.51074 24.24366,29.29442 4.85112,6.46816 10.720583,11.33962 14.142143,18.18274 2.977913,5.95583 8.125413,9.28305 12.121833,13.13199 5.38388,5.1852 11.07381,9.0535 16.16244,14.14213 5.21557,5.21558 10.86832,9.97985 17.17259,13.13199 6.84396,3.42197 13.3556,7.59386 19.94919,11.11167 6.52601,3.48176 12.30212,5.45406 18.43661,9.09138 5.40538,3.205 8.14869,5.11823 13.13198,10.10152 4.92917,4.92917 8.41558,7.73978 11.11168,13.13199 3.43026,6.86051 4.29272,9.40693 11.11168,11.11167 5.41023,1.35256 10.09705,2.7768 15.15229,4.04061 4.78505,1.19627 10.07298,1.01016 15.15229,1.01016 6.85573,0 7.07106,-3.38069 7.07106,-9.79175 0,-5.49074 0,-10.98148 0,-16.47222 0,-6.7201 2.77115,-9.60999 -1.01015,-17.17259 -3.05313,-6.10627 -6.63651,-7.64666 -11.11168,-12.12183 -4.58472,-4.58472 -9.54016,-6.79039 -14.14213,-9.09138 -5.16075,-2.58037 -9.49726,-8.34638 -13.13199,-13.13198 -3.17985,-4.1867 -4.87338,-10.40218 -6.06091,-15.15229 -1.20725,-4.82898 -8.71553,-10.67842 -11.11168,-12.85771 -4.90787,-4.46368 -9.85945,-10.72646 -14.14213,-16.43671 -4.12164,-5.49552 -9.3282,-10.33834 -14.14214,-15.15229 -4.63853,-4.63853 -8.84524,-10.34374 -13.13198,-16.411 -0.93369,-1.3215 -2.02031,-2.52803 -3.03046,-3.79205 -4.35408,-5.44832 -10.266,-8.2457 -15.15229,-13.13198 -4.35407,-4.35407 -12.71414,-9.38753 -18.18274,-12.12183 -6.33031,-3.16516 -12.86588,-7.12403 -18.18275,-11.11168 -4.976653,-3.73249 -12.062486,-4.51601 -17.172596,-7.07107 -5.5953,-2.79765 -8.26632,-7.16361 -14.14214,-10.10153 -4.60253,-2.30126 -8.99536,-6.97505 -13.13198,-11.11167 -5.6157,-5.6157 -11.42618,-11.86773 -16.16244,-18.18275 -5.63138,-7.5085 -8.10636,-5.65183 -16.16245,-4.04061 -5.21257,1.04252 -11.27229,0.79777 -16.1624402,2.02031 -3.70083,0.92521 -1.52953,13.07476 -1.01015,15.15228 1.30299,5.21195 2.7223902,9.87942 4.0406102,15.15229 0.64099,2.56397 -0.52327,4.11341 -1.01015,6.06092 z"
         style="fill:url(#pattern3043);fill-opacity:1;fill-rule:evenodd;stroke:#000000;stroke-width:4;stroke-linecap:butt;stroke-linejoin:miter;stroke-miterlimit:4;stroke-opacity:1;stroke-dasharray:none"
         inkscape:connector-curvature="0" />
      <path
         sodipodi:nodetypes="csssssssssssssssssccssssssssssscsssssc"
         id="path1312"
         d="m 127.21305,732.90468 c -17.23336,-4.08056 -36.470207,1.82321 -40.406107,7.07107 -4.2708,5.69441 -9.0404,10.707 -13.13198,16.16244 -4.72193,6.29591 -10.82679,12.84709 -16.16244,18.18275 -3.77672,3.77672 -7.76157,14.51298 -10.10153,19.19289 -2.0742,4.1484 -10.16926,8.11509 -14.14213,10.10153 -4.40647,2.20324 -10.36749,7.33703 -14.14214,11.11168 -4.96357,4.96358 -11.1116697,0.88674 -11.1116697,11.11168 0,5.72419 0,11.44839 0,17.17259 0,6.5837 -3.71497,9.74266 -1.01016,15.15229 1.43777,2.87553 14.8382597,-2.69942 16.1624397,-3.03046 6.50992,-1.62748 10.9872,-3.03046 18.18275,-3.03046 7.54582,0 8.28038,1.82114 14.14214,-4.04061 4.54289,-4.5429 8.49629,-9.50645 13.13198,-14.14213 4.34049,-4.3405 11.27433,-6.15772 15.15229,-10.10153 3.64732,-3.70927 3.89446,-10.81938 6.06091,-15.15229 3.38056,-6.76111 9.40254,-9.82982 15.152287,-14.14213 5.55022,-4.16267 11.58339,-6.91978 17.17259,-11.11168 4.82875,-3.62156 12.0601,-34.03997 5.05077,-50.50763 z m 0.11943,0.63009 c 18.38428,1.33491 44.47629,-13.04993 47.35774,-18.81283 2.51132,-5.02265 8.61387,-11.64433 12.12183,-15.15229 5.0602,-5.06021 9.95393,-10.96409 15.15228,-16.16244 5.19729,-5.19729 10.90083,-8.88053 16.16245,-14.14214 5.11294,-5.11294 7.96046,-5.94016 13.13198,-11.11168 3.80135,-3.80135 6.61297,-7.62312 10.10152,-11.11168 3.26745,-3.26745 6.65563,-6.24018 9.09138,-11.11167 1.88921,-3.77842 1.01015,-10.64507 1.01015,-15.15229 0,-5.7793 -0.46613,-10.72313 -6.06092,-12.12183 -5.04722,-1.26181 -10.09246,2.02031 -15.15228,2.02031 -4.63439,0 -10.13763,1.01015 -15.15229,1.01015 -3.27205,0 -4.29709,-0.25333 -8.08122,-1.01015 -1.77562,4.44224 -8.64751,13.2136 -13.13199,19.19289 -4.4165,5.88867 -6.70903,11.7598 -12.12183,17.17259 -4.45566,4.45567 -7.08489,11.12551 -12.12183,16.16245 -5.03566,5.03566 -12.09905,9.07998 -18.18274,12.12183 -6.43322,3.21661 -11.89931,6.84854 -17.1726,12.12183 -1.01015,1.01015 -8.58583,29.53841 -6.95163,46.08695 z"
         style="fill:url(#pattern3045);fill-opacity:1;fill-rule:evenodd;stroke:#000000;stroke-width:4;stroke-linecap:butt;stroke-linejoin:miter;stroke-miterlimit:4;stroke-opacity:1;stroke-dasharray:none"
         inkscape:connector-curvature="0" />
    </g>
  </g>
</svg>
